<svg width="13" height="9" viewBox="0 0 13 9" fill="none" xmlns="http://www.w3.org/2000/svg">
<path d="M4.73091 5.412C4.38704 5.13548 4.17773 4.75973 4.17773 4.3382C4.17773 3.49371 5.02214 2.81301 6.06988 2.81301C6.58836 2.81301 7.06558 2.98211 7.40347 3.25862" stroke="#FE904B" stroke-width="1.07644" stroke-linecap="round" stroke-linejoin="round"/>
<path d="M7.92685 4.60862C7.78811 5.23007 7.18052 5.72048 6.40967 5.83321" stroke="#FE904B" stroke-width="1.07644" stroke-linecap="round" stroke-linejoin="round"/>
<path d="M2.87336 6.90811C1.9243 6.30786 1.12056 5.4311 0.538086 4.33803C1.12654 3.24014 1.93566 2.35856 2.89071 1.75349C3.83977 1.14842 4.93475 0.819878 6.06979 0.819878C7.21142 0.819878 8.3058 1.15324 9.26084 1.76264" stroke="#FE904B" stroke-width="1.07644" stroke-linecap="round" stroke-linejoin="round"/>
<path d="M10.5239 2.82225C10.9354 3.26256 11.2972 3.77079 11.6016 4.3378C10.4253 6.53309 8.34653 7.85547 6.06986 7.85547C5.55376 7.85547 5.04485 7.78803 4.55566 7.65651" stroke="#FE904B" stroke-width="1.07644" stroke-linecap="round" stroke-linejoin="round"/>
<path d="M10.7867 0.538239L1.35352 8.13721" stroke="#FE904B" stroke-width="1.07644" stroke-linecap="round" stroke-linejoin="round"/>
</svg>
